<svg xmlns="http://www.w3.org/2000/svg" xmlns:xlink="http://www.w3.org/1999/xlink" width="600" height="600" viewBox="0 0 600 600">
  <defs>
    <clipPath id="clip-openai">
      <rect width="600" height="600"/>
    </clipPath>
  </defs>
  <g id="openai" clip-path="url(#clip-openai)">
    <rect width="600" height="600" fill="#13b48b"/>
    <path id="open-ai" d="M422.21,188.791a115.587,115.587,0,0,0-9.575-93.45C387.854,52,337.766,30.047,288.8,40.169,267.388,15.98,235.881,2.461,203.211,2.461A115.583,115.583,0,0,0,93.464,81.809a113.991,113.991,0,0,0-76.013,55.184A115.587,115.587,0,0,0,31.54,271.525,115.736,115.736,0,0,0,165.5,420.147a115.282,115.282,0,0,0,195.338-41.092,113.991,113.991,0,0,0,75.983-55.162,115.587,115.587,0,0,0-14.636-135.1M251.064,428.582a83.441,83.441,0,0,1-54.6-19.7c.57-.57,2.257-1.14,2.827-1.687l90.623-52.345a14.819,14.819,0,0,0,7.318-12.949V214.12l38.278,21.955c.57,0,.57.547.57,1.14V343.021a84.718,84.718,0,0,1-85.014,85.562M67.539,350.339a85.34,85.34,0,0,1-10.122-57.406,12.792,12.792,0,0,0,2.827,1.687l90.623,52.345a13.679,13.679,0,0,0,14.636,0l110.89-64.177v44.456c0,.593,0,1.14-.547,1.14L184.083,381.3c-40.535,23.642-92.88,9.575-116.522-30.96M43.943,152.222A88.457,88.457,0,0,1,88.4,114.514V222.578a15.6,15.6,0,0,0,7.318,12.949L206.631,299.7l-38.3,21.955c-.547,0-1.117.57-1.117,0L75.45,268.721A84.672,84.672,0,0,1,43.92,152.2m315.231,73.182L248.26,161.2l38.278-21.955c.547,0,1.14-.57,1.14,0l91.74,52.892a85.134,85.134,0,0,1-13.5,153.706V238.331a13.907,13.907,0,0,0-6.771-12.949m37.708-57.429a11.4,11.4,0,0,0-2.8-1.687l-90.623-52.345a13.679,13.679,0,0,0-14.636,0L177.882,178.1V133.619c0-.57,0-1.14.57-1.14l91.763-52.892a85.037,85.037,0,0,1,116.5,31.507c10.145,16.893,13.519,37.161,10.145,56.859M157.067,246.767l-38.3-21.955c-.547,0-.547-.57-.547-1.14V117.888a85.493,85.493,0,0,1,85.562-85.562,83.441,83.441,0,0,1,54.6,19.7,11.4,11.4,0,0,1-2.8,1.687l-90.623,52.322a14.819,14.819,0,0,0-7.318,12.949V246.767Zm20.815-45.026,49.54-28.726,49.54,28.726v56.836L227.423,287.3l-49.54-28.726Z" transform="translate(72.869 69.539)" fill="#fff"/>
  </g>
</svg>
